<?xml version="1.0" standalone="no"?>
 <!DOCTYPE svg PUBLIC "-//W3C//DTD SVG 1.1//EN" 
 "http://www.w3.org/Graphics/SVG/1.1/DTD/svg11.dtd"> 
<svg
  xmlns:svg="http://www.w3.org/2000/svg"
  xmlns="http://www.w3.org/2000/svg"
  xmlns:xlink="http://www.w3.org/1999/xlink"
  version="1.1"
  width="29.700220cm" height="21.000720cm" viewBox="0 0 116930 82680">
<title>SVG Picture created as Flashlight_PT4115-F_Cu.svg date 2022/05/07 19:17:57 </title>
  <desc>Picture generated by PCBNEW </desc>
<g style="fill:#000000; fill-opacity:1;stroke:#000000; stroke-opacity:1;
stroke-linecap:round; stroke-linejoin:round;"
 transform="translate(0 0) scale(1 1)">
</g>
<g style="fill:#000000; fill-opacity:0.0; 
stroke:#000000; stroke-width:-0.000393701; stroke-opacity:1; 
stroke-linecap:round; stroke-linejoin:round;">
<g >
</g>
<g style="fill:#000000; fill-opacity:0.0; 
stroke:#000000; stroke-width:0; stroke-opacity:1; 
stroke-linecap:round; stroke-linejoin:round;">
</g>
<g style="fill:#000000; fill-opacity:1.0; 
stroke:#000000; stroke-width:0; stroke-opacity:1; 
stroke-linecap:round; stroke-linejoin:round;">
<path style="fill:#000000; fill-opacity:1.0; 
stroke:#000000; stroke-width:0; stroke-opacity:1; 
stroke-linecap:round; stroke-linejoin:round;fill-rule:evenodd;"
d="M 77560.1,26555.6
77550.6,26557
77541.2,26559.4
77532.1,26562.6
77523.4,26566.7
77515.1,26571.7
77507.3,26577.5
77500.2,26583.9
77493.7,26591.1
77487.9,26598.9
77483,26607.1
77478.8,26615.9
77475.6,26625
77473.2,26634.3
77471.8,26643.9
77471.3,26653.5
77471.3,26850.4
77471.8,26860
77473.2,26869.6
77475.6,26879
77478.8,26888.1
77483,26896.8
77487.9,26905.1
77493.7,26912.8
77500.2,26920
77507.3,26926.5
77515.1,26932.2
77523.4,26937.2
77532.1,26941.3
77541.2,26944.6
77550.6,26946.9
77560.1,26948.3
77569.8,26948.8
77943.8,26948.8
77953.4,26948.3
77963,26946.9
77972.4,26944.6
77981.4,26941.3
77990.2,26937.2
77998.5,26932.2
78006.2,26926.5
78013.4,26920
78019.9,26912.8
78025.6,26905.1
78030.6,26896.8
78034.7,26888.1
78038,26879
78040.3,26869.6
78041.7,26860
78042.2,26850.4
78042.2,26653.5
78041.7,26643.9
78040.3,26634.3
78038,26625
78034.7,26615.9
78030.6,26607.1
78025.6,26598.9
78019.9,26591.1
78013.4,26583.9
78006.2,26577.5
77998.5,26571.7
77990.2,26566.7
77981.4,26562.6
77972.4,26559.4
77963,26557
77953.4,26555.6
77943.8,26555.1
77569.8,26555.1
Z" /> 
<path style="fill:#000000; fill-opacity:1.0; 
stroke:#000000; stroke-width:0; stroke-opacity:1; 
stroke-linecap:round; stroke-linejoin:round;fill-rule:evenodd;"
d="M 77560.1,25807.6
77550.6,25809
77541.2,25811.3
77532.1,25814.6
77523.4,25818.7
77515.1,25823.7
77507.3,25829.4
77500.2,25835.9
77493.7,25843.1
77487.9,25850.8
77483,25859.1
77478.8,25867.8
77475.6,25876.9
77473.2,25886.3
77471.8,25895.9
77471.3,25905.5
77471.3,26102.4
77471.8,26112
77473.2,26121.6
77475.6,26130.9
77478.8,26140
77483,26148.8
77487.9,26157
77493.7,26164.8
77500.2,26172
77507.3,26178.4
77515.1,26184.2
77523.4,26189.2
77532.1,26193.3
77541.2,26196.5
77550.6,26198.9
77560.1,26200.3
77569.8,26200.8
77943.8,26200.8
77953.4,26200.3
77963,26198.9
77972.4,26196.5
77981.4,26193.3
77990.2,26189.2
77998.5,26184.2
78006.2,26178.4
78013.4,26172
78019.9,26164.8
78025.6,26157
78030.6,26148.8
78034.7,26140
78038,26130.9
78040.3,26121.6
78041.7,26112
78042.2,26102.4
78042.2,25905.5
78041.7,25895.9
78040.3,25886.3
78038,25876.9
78034.7,25867.8
78030.6,25859.1
78025.6,25850.8
78019.9,25843.1
78013.4,25835.9
78006.2,25829.4
77998.5,25823.7
77990.2,25818.7
77981.4,25814.6
77972.4,25811.3
77963,25809
77953.4,25807.6
77943.8,25807.1
77569.8,25807.1
Z" /> 
</g>
<g >
</g>
<g style="fill:#000000; fill-opacity:1.0; 
stroke:#000000; stroke-width:0; stroke-opacity:1; 
stroke-linecap:round; stroke-linejoin:round;">
<path style="fill:#000000; fill-opacity:1.0; 
stroke:#000000; stroke-width:0; stroke-opacity:1; 
stroke-linecap:round; stroke-linejoin:round;fill-rule:evenodd;"
d="M 73856.8,28657.5
74565.4,28657.5
74565.4,27673.2
73856.8,27673.2
Z" /> 
<path style="fill:#000000; fill-opacity:1.0; 
stroke:#000000; stroke-width:0; stroke-opacity:1; 
stroke-linecap:round; stroke-linejoin:round;fill-rule:evenodd;"
d="M 73856.8,27082.7
74565.4,27082.7
74565.4,26098.4
73856.8,26098.4
Z" /> 
</g>
<g >
</g>
<g style="fill:#000000; fill-opacity:1.0; 
stroke:#000000; stroke-width:0; stroke-opacity:1; 
stroke-linecap:round; stroke-linejoin:round;">
<circle cx="76589.7" cy="24198.6" r="511.811" /> 
</g>
<g style="fill:#000000; fill-opacity:1.0; 
stroke:#000000; stroke-width:39.3701; stroke-opacity:1; 
stroke-linecap:round; stroke-linejoin:round;">
</g>
<g style="fill:#000000; fill-opacity:1.0; 
stroke:#000000; stroke-width:0; stroke-opacity:1; 
stroke-linecap:round; stroke-linejoin:round;">
<circle cx="75197.7" cy="25590.6" r="511.811" /> 
</g>
<g style="fill:#000000; fill-opacity:1.0; 
stroke:#000000; stroke-width:39.3701; stroke-opacity:1; 
stroke-linecap:round; stroke-linejoin:round;">
</g>
<g >
</g>
<g style="fill:#000000; fill-opacity:1.0; 
stroke:#000000; stroke-width:39.3701; stroke-opacity:1; 
stroke-linecap:round; stroke-linejoin:round;">
</g>
<g style="fill:#000000; fill-opacity:1.0; 
stroke:#000000; stroke-width:0; stroke-opacity:1; 
stroke-linecap:round; stroke-linejoin:round;">
<path style="fill:#000000; fill-opacity:1.0; 
stroke:#000000; stroke-width:0; stroke-opacity:1; 
stroke-linecap:round; stroke-linejoin:round;fill-rule:evenodd;"
d="M 75758.3,27870.1
75482.8,27870.1
75482.8,28460.6
75758.3,28460.6
Z" /> 
<path style="fill:#000000; fill-opacity:1.0; 
stroke:#000000; stroke-width:0; stroke-opacity:1; 
stroke-linecap:round; stroke-linejoin:round;fill-rule:evenodd;"
d="M 76939.4,27870.1
76663.9,27870.1
76663.9,28460.6
76939.4,28460.6
Z" /> 
<path style="fill:#000000; fill-opacity:1.0; 
stroke:#000000; stroke-width:0; stroke-opacity:1; 
stroke-linecap:round; stroke-linejoin:round;fill-rule:evenodd;"
d="M 75758.3,26413.4
75482.8,26413.4
75482.8,27003.9
75758.3,27003.9
Z" /> 
<path style="fill:#000000; fill-opacity:1.0; 
stroke:#000000; stroke-width:0; stroke-opacity:1; 
stroke-linecap:round; stroke-linejoin:round;fill-rule:evenodd;"
d="M 76939.4,26413.4
76663.9,26413.4
76663.9,27003.9
76939.4,27003.9
Z" /> 
<path style="fill:#000000; fill-opacity:1.0; 
stroke:#000000; stroke-width:0; stroke-opacity:1; 
stroke-linecap:round; stroke-linejoin:round;fill-rule:evenodd;"
d="M 76014.3,27791.3
76014.3,28460.6
76408,28460.6
76408,27791.3
76604.8,27594.5
76604.8,27279.5
76408,27082.7
76408,26413.4
76014.3,26413.4
76014.3,27082.7
75817.4,27279.5
75817.4,27594.5
Z" /> 
</g>
<g >
</g>
<g style="fill:#000000; fill-opacity:1.0; 
stroke:#000000; stroke-width:0; stroke-opacity:1; 
stroke-linecap:round; stroke-linejoin:round;">
<path style="fill:#000000; fill-opacity:1.0; 
stroke:#000000; stroke-width:0; stroke-opacity:1; 
stroke-linecap:round; stroke-linejoin:round;fill-rule:evenodd;"
d="M 79331.6,28543.3
79331.6,27362.2
78150.5,27362.2
78150.5,28543.3
Z" /> 
</g>
<g >
</g>
<g style="fill:#000000; fill-opacity:1.0; 
stroke:#000000; stroke-width:0; stroke-opacity:1; 
stroke-linecap:round; stroke-linejoin:round;">
<path style="fill:#000000; fill-opacity:1.0; 
stroke:#000000; stroke-width:0; stroke-opacity:1; 
stroke-linecap:round; stroke-linejoin:round;fill-rule:evenodd;"
d="M 79331.6,25393.7
79331.6,24212.6
78150.5,24212.6
78150.5,25393.7
Z" /> 
</g>
<g >
</g>
<g style="fill:#000000; fill-opacity:1.0; 
stroke:#000000; stroke-width:0; stroke-opacity:1; 
stroke-linecap:round; stroke-linejoin:round;">
<path style="fill:#000000; fill-opacity:1.0; 
stroke:#000000; stroke-width:0; stroke-opacity:1; 
stroke-linecap:round; stroke-linejoin:round;fill-rule:evenodd;"
d="M 73622.9,30905.5
73622.9,32086.6
74804,32086.6
74804,30905.5
Z" /> 
</g>
<g >
</g>
<g style="fill:#000000; fill-opacity:1.0; 
stroke:#000000; stroke-width:0; stroke-opacity:1; 
stroke-linecap:round; stroke-linejoin:round;">
<path style="fill:#000000; fill-opacity:1.0; 
stroke:#000000; stroke-width:0; stroke-opacity:1; 
stroke-linecap:round; stroke-linejoin:round;fill-rule:evenodd;"
d="M 76378.8,30905.5
76378.8,32086.6
77559.9,32086.6
77559.9,30905.5
Z" /> 
</g>
<g >
</g>
<g style="fill:#000000; fill-opacity:1.0; 
stroke:#000000; stroke-width:0; stroke-opacity:1; 
stroke-linecap:round; stroke-linejoin:round;">
<path style="fill:#000000; fill-opacity:1.0; 
stroke:#000000; stroke-width:0; stroke-opacity:1; 
stroke-linecap:round; stroke-linejoin:round;fill-rule:evenodd;"
d="M 75109.3,31211.1
75099.8,31212.5
75090.4,31214.9
75081.3,31218.1
75072.6,31222.3
75064.3,31227.2
75056.5,31233
75049.4,31239.5
75042.9,31246.6
75037.1,31254.4
75032.2,31262.7
75028,31271.4
75024.8,31280.5
75022.4,31289.9
75021,31299.4
75020.6,31309.1
75020.6,31683.1
75021,31692.7
75022.4,31702.3
75024.8,31711.6
75028,31720.7
75032.2,31729.5
75037.1,31737.8
75042.9,31745.5
75049.4,31752.7
75056.5,31759.2
75064.3,31764.9
75072.6,31769.9
75081.3,31774
75090.4,31777.3
75099.8,31779.6
75109.3,31781
75119,31781.5
75315.8,31781.5
75325.5,31781
75335,31779.6
75344.4,31777.3
75353.5,31774
75362.2,31769.9
75370.5,31764.9
75378.3,31759.2
75385.4,31752.7
75391.9,31745.5
75397.7,31737.8
75402.6,31729.5
75406.8,31720.7
75410,31711.6
75412.4,31702.3
75413.8,31692.7
75414.3,31683.1
75414.3,31309.1
75413.8,31299.4
75412.4,31289.9
75410,31280.5
75406.8,31271.4
75402.6,31262.7
75397.7,31254.4
75391.9,31246.6
75385.4,31239.5
75378.3,31233
75370.5,31227.2
75362.2,31222.3
75353.5,31218.1
75344.4,31214.9
75335,31212.5
75325.5,31211.1
75315.8,31210.6
75119,31210.6
Z" /> 
<path style="fill:#000000; fill-opacity:1.0; 
stroke:#000000; stroke-width:0; stroke-opacity:1; 
stroke-linecap:round; stroke-linejoin:round;fill-rule:evenodd;"
d="M 75857.4,31211.1
75847.8,31212.5
75838.4,31214.9
75829.3,31218.1
75820.6,31222.3
75812.3,31227.2
75804.6,31233
75797.4,31239.5
75790.9,31246.6
75785.2,31254.4
75780.2,31262.7
75776.1,31271.4
75772.8,31280.5
75770.5,31289.9
75769.1,31299.4
75768.6,31309.1
75768.6,31683.1
75769.1,31692.7
75770.5,31702.3
75772.8,31711.6
75776.1,31720.7
75780.2,31729.5
75785.2,31737.8
75790.9,31745.5
75797.4,31752.7
75804.6,31759.2
75812.3,31764.9
75820.6,31769.9
75829.3,31774
75838.4,31777.3
75847.8,31779.6
75857.4,31781
75867,31781.5
76063.9,31781.5
76073.5,31781
76083.1,31779.6
76092.4,31777.3
76101.5,31774
76110.3,31769.9
76118.5,31764.9
76126.3,31759.2
76133.5,31752.7
76139.9,31745.5
76145.7,31737.8
76150.7,31729.5
76154.8,31720.7
76158,31711.6
76160.4,31702.3
76161.8,31692.7
76162.3,31683.1
76162.3,31309.1
76161.8,31299.4
76160.4,31289.9
76158,31280.5
76154.8,31271.4
76150.7,31262.7
76145.7,31254.4
76139.9,31246.6
76133.5,31239.5
76126.3,31233
76118.5,31227.2
76110.3,31222.3
76101.5,31218.1
76092.4,31214.9
76083.1,31212.5
76073.5,31211.1
76063.9,31210.6
75867,31210.6
Z" /> 
</g>
<g >
</g>
<g style="fill:#000000; fill-opacity:1.0; 
stroke:#000000; stroke-width:0; stroke-opacity:1; 
stroke-linecap:round; stroke-linejoin:round;">
<circle cx="77213.5" cy="29724.4" r="314.961" /> 
</g>
<g style="fill:#000000; fill-opacity:1.0; 
stroke:#000000; stroke-width:39.3701; stroke-opacity:1; 
stroke-linecap:round; stroke-linejoin:round;">
</g>
<g style="fill:#000000; fill-opacity:1.0; 
stroke:#000000; stroke-width:0; stroke-opacity:1; 
stroke-linecap:round; stroke-linejoin:round;">
<circle cx="74213.5" cy="29724.4" r="314.961" /> 
</g>
<g >
</g>
<g >
</g>
<g style="fill:#000000; fill-opacity:1.0; 
stroke:#000000; stroke-width:0; stroke-opacity:1; 
stroke-linecap:round; stroke-linejoin:round;">
</g>
<g style="fill:#000000; fill-opacity:1.0; 
stroke:#000000; stroke-width:275.591; stroke-opacity:1; 
stroke-linecap:round; stroke-linejoin:round;">
</g>
<g style="fill:#000000; fill-opacity:0.0; 
stroke:#000000; stroke-width:275.591; stroke-opacity:1; 
stroke-linecap:round; stroke-linejoin:round;">
<path d="M78528 28165
L78741 27952
" />
<path d="M76801 28572
L76801 28165
" />
<path d="M77213 28984
L76801 28572
" />
<path d="M77213 29724
L77213 28984
" />
<path d="M77756 26751
L77756 28149
" />
<path d="M77741 28165
L78528 28165
" />
<path d="M77756 28149
L77741 28165
" />
<path d="M76801 28165
L77741 28165
" />
</g>
<g style="fill:#000000; fill-opacity:0.0; 
stroke:#000000; stroke-width:590.551; stroke-opacity:1; 
stroke-linecap:round; stroke-linejoin:round;">
<path d="M77194 24803
L76589 24198
" />
</g>
<g style="fill:#000000; fill-opacity:0.0; 
stroke:#000000; stroke-width:275.591; stroke-opacity:1; 
stroke-linecap:round; stroke-linejoin:round;">
<path d="M77756 26003
L77756 24803
" />
</g>
<g style="fill:#000000; fill-opacity:0.0; 
stroke:#000000; stroke-width:590.551; stroke-opacity:1; 
stroke-linecap:round; stroke-linejoin:round;">
<path d="M77756 24803
L77194 24803
" />
<path d="M78741 24803
L77756 24803
" />
<path d="M74195 26574
L74211 26590
" />
</g>
<g style="fill:#000000; fill-opacity:0.0; 
stroke:#000000; stroke-width:275.591; stroke-opacity:1; 
stroke-linecap:round; stroke-linejoin:round;">
<path d="M74329 26708
L74211 26590
" />
<path d="M75620 26708
L74329 26708
" />
</g>
<g style="fill:#000000; fill-opacity:0.0; 
stroke:#000000; stroke-width:590.551; stroke-opacity:1; 
stroke-linecap:round; stroke-linejoin:round;">
<path d="M74211 26380
L74211 26590
" />
<path d="M75000 25590
L74211 26380
" />
<path d="M75197 25590
L75000 25590
" />
</g>
<g style="fill:#000000; fill-opacity:0.0; 
stroke:#000000; stroke-width:275.591; stroke-opacity:1; 
stroke-linecap:round; stroke-linejoin:round;">
<path d="M75620 28165
L74211 28165
" />
</g>
<g style="fill:#000000; fill-opacity:0.0; 
stroke:#000000; stroke-width:590.551; stroke-opacity:1; 
stroke-linecap:round; stroke-linejoin:round;">
<path d="M74213 28167
L74211 28165
" />
<path d="M74213 31496
L74213 28167
" />
</g>
<g style="fill:#000000; fill-opacity:0.0; 
stroke:#000000; stroke-width:393.701; stroke-opacity:1; 
stroke-linecap:round; stroke-linejoin:round;">
<path d="M75217 31496
L74213 31496
" />
</g>
<g >
</g>
<g style="fill:#000000; fill-opacity:0.0; 
stroke:#000000; stroke-width:393.701; stroke-opacity:1; 
stroke-linecap:round; stroke-linejoin:round;">
<g >
</g>
<g style="fill:#000000; fill-opacity:1.0; 
stroke:#000000; stroke-width:100; stroke-opacity:1; 
stroke-linecap:round; stroke-linejoin:round;">
<path style="fill:#000000; fill-opacity:1.0; 
stroke:#000000; stroke-width:100; stroke-opacity:1; 
stroke-linecap:round; stroke-linejoin:round;fill-rule:evenodd;"
d="M 73092.2,32814.2
79665.4,32814.2
79665.4,32086.6
77808,32086.6
77803.2,32135
77789.1,32181.5
77766.2,32224.4
77735.3,32262
77697.7,32292.9
77654.8,32315.8
77608.3,32329.9
77559.9,32334.7
77118.9,32333.5
77057.2,32271.8
77057.2,31583.9
76881.6,31583.9
76881.6,32271.8
76819.9,32333.5
76378.8,32334.7
76330.4,32329.9
76283.9,32315.8
76241,32292.9
76203.4,32262
76172.6,32224.4
76149.7,32181.5
76135.5,32135
76130.8,32086.6
76130.9,32028.8
76114.9,32028.3
76053.2,31966.6
76053.2,31583.9
76881.6,31583.9
77057.2,31583.9
77745.1,31583.9
77806.8,31645.6
77808,32086.6
79665.4,32086.6
79665.4,30905.5
77808,30905.5
77806.8,31346.6
77745.1,31408.3
77057.2,31408.3
77057.2,30720.4
76881.6,30720.4
76881.6,31408.3
76053.2,31408.3
76053.2,31025.5
76114.9,30963.8
76130.9,30963.4
76130.8,30905.5
76135.5,30857.1
76149.7,30810.6
76172.6,30767.7
76203.4,30730.1
76241,30699.3
76283.9,30676.3
76330.4,30662.2
76378.8,30657.5
76819.9,30658.7
76881.6,30720.4
77057.2,30720.4
77118.9,30658.7
77559.9,30657.5
77608.3,30662.2
77654.8,30676.3
77697.7,30699.3
77735.3,30730.1
77766.2,30767.7
77789.1,30810.6
77803.2,30857.1
77808,30905.5
79665.4,30905.5
79665.4,24212.6
79579.6,24212.6
79579.6,25393.7
79574.9,25442.1
79560.7,25488.6
79537.8,25531.5
79507,25569.1
79469.4,25599.9
79426.5,25622.9
79380,25637
79331.6,25641.7
78165.9,25641.7
78188.8,25660.5
78231.9,25713
78263.9,25772.9
78283.6,25837.9
78290.2,25905.5
78290.2,26102.4
78283.6,26170
78263.9,26235
78231.9,26294.9
78188.8,26347.4
78151.5,26378
78188.8,26408.6
78231.9,26461.1
78263.9,26521
78283.6,26586
78290.2,26653.5
78290.2,26850.4
78283.6,26918
78263.9,26983
78231.9,27042.9
78188.8,27095.4
78165.9,27114.2
79331.6,27114.2
79380,27118.9
79426.5,27133
79469.4,27156
79507,27186.8
79537.8,27224.4
79560.7,27267.3
79574.9,27313.8
79579.6,27362.2
79579.6,28543.3
79574.9,28591.7
79560.7,28638.2
79537.8,28681.1
79507,28718.7
79469.4,28749.5
79426.5,28772.5
79380,28786.6
79331.6,28791.4
78150.5,28791.4
78102.1,28786.6
78055.6,28772.5
78012.7,28749.5
77975.1,28718.7
77944.2,28681.1
77921.3,28638.2
77907.2,28591.7
77903.1,28550
77759.9,28550
77741,28551.9
77722.1,28550
77323.2,28550
77472.1,28698.9
77486.8,28711
77498.8,28725.6
77498.8,28725.6
77534.8,28769.5
77570.6,28836.3
77592.5,28908.8
77600,28984.3
77598.1,29003.2
77598.1,29314.5
77649.9,29366.3
77711.3,29458.3
77753.7,29560.5
77775.3,29669.1
77775.3,29779.7
77753.7,29888.3
77711.3,29990.5
77649.9,30082.5
77571.6,30160.8
77479.6,30222.3
77377.3,30264.6
77268.8,30286.2
77158.1,30286.2
77049.6,30264.6
76947.3,30222.3
76855.3,30160.8
76777.1,30082.5
76715.6,29990.5
76673.2,29888.3
76651.7,29779.7
76651.7,29669.1
76673.2,29560.5
76715.6,29458.3
76777.1,29366.3
76828.8,29314.5
76828.8,29143.6
76543,28857.8
76528.4,28845.7
76480.3,28787.2
76444.6,28720.4
76422.6,28647.8
76417,28591.3
76417,28591.3
76415.1,28572.4
76417,28553.6
76417,28472.8
76415.8,28460.6
76415.8,28172.1
76415.1,28165.4
76007.1,28165.4
76006.4,28172.1
76006.4,28460.6
76001.6,28509
75987.5,28555.6
75964.6,28598.4
75933.7,28636
75896.2,28666.9
75853.3,28689.8
75806.7,28703.9
75758.3,28708.7
75482.8,28708.7
75434.4,28703.9
75387.8,28689.8
75344.9,28666.9
75307.4,28636
75276.5,28598.4
75253.6,28555.6
75251.9,28550
74813.5,28550
74813.5,28657.5
74808.7,28705.9
74794.6,28752.4
74771.7,28795.3
74755.6,28814.9
74755.6,29570.1
74775.3,29669.1
74775.3,29779.7
74755.6,29878.7
74755.6,30657.5
74804,30657.5
74852.4,30662.2
74898.9,30676.3
74941.8,30699.3
74979.4,30730.1
75010.3,30767.7
75033.2,30810.6
75047.3,30857.1
75052.1,30905.5
75052.1,30969.2
75119,30962.6
75315.8,30962.6
75383.4,30969.2
75448.4,30989
75508.3,31021
75560.8,31064.1
75565.2,31069.4
75593.2,31035.2
75630.8,31004.4
75673.7,30981.5
75720.2,30967.4
75768.6,30962.6
75815.9,30963.8
75877.6,31025.5
75877.6,31408.3
75869.8,31408.3
75869.8,31583.9
75877.6,31583.9
75877.6,31966.6
75815.9,32028.3
75768.6,32029.5
75720.2,32024.8
75673.7,32010.7
75630.8,31987.7
75593.2,31956.9
75565.2,31922.8
75560.8,31928.1
75508.3,31971.1
75448.4,32003.2
75383.4,32022.9
75315.8,32029.5
75119,32029.5
75052.1,32022.9
75052.1,32086.6
75047.3,32135
75033.2,32181.5
75010.3,32224.4
74979.4,32262
74941.8,32292.9
74898.9,32315.8
74852.4,32329.9
74804,32334.7
73622.9,32334.7
73574.5,32329.9
73528,32315.8
73485.1,32292.9
73447.5,32262
73416.7,32224.4
73393.8,32181.5
73379.6,32135
73374.9,32086.6
73374.9,30905.5
73379.6,30857.1
73393.8,30810.6
73416.7,30767.7
73447.5,30730.1
73485.1,30699.3
73528,30676.3
73574.5,30662.2
73622.9,30657.5
73671.3,30657.5
73671.3,29878.7
73651.7,29779.7
73651.7,29669.1
73671.3,29570.1
73671.3,28820.6
73650.5,28795.3
73627.6,28752.4
73613.5,28705.9
73608.7,28657.5
73608.7,27673.2
73613.5,27624.8
73627.6,27578.3
73650.5,27535.4
73681.4,27497.8
73719,27467
73761.8,27444.1
73808.4,27430
73856.8,27425.2
74565.4,27425.2
74613.8,27430
74660.4,27444.1
74703.2,27467
74740.8,27497.8
74771.7,27535.4
74794.6,27578.3
74808.7,27624.8
74813.5,27673.2
74813.5,27780.7
75251.9,27780.7
75253.6,27775.2
75276.5,27732.3
75307.4,27694.7
75344.9,27663.8
75387.8,27640.9
75434.4,27626.8
75482.8,27622
75758.3,27622
75806.7,27626.8
75853.3,27640.9
75896.2,27663.8
75933.7,27694.7
75964.6,27732.3
75987.5,27775.2
76001.6,27821.7
76006.4,27870.1
76006.4,28158.6
76007.1,28165.4
76415.1,28165.4
76415.8,28158.6
76415.8,27870.1
76420.6,27821.7
76434.7,27775.2
76457.6,27732.3
76488.5,27694.7
76526.1,27663.8
76568.9,27640.9
76615.5,27626.8
76663.9,27622
76939.4,27622
76987.8,27626.8
77034.4,27640.9
77077.3,27663.8
77114.8,27694.7
77145.7,27732.3
77168.6,27775.2
77170.3,27780.7
77372.1,27780.7
77372.1,27134.2
77324.8,27095.4
77281.7,27042.9
77249.7,26983
77230,26918
77223.3,26850.4
77223.3,26653.5
77230,26586
77249.7,26521
77281.7,26461.1
77320.8,26413.4
77187.5,26413.4
77187.5,27003.9
77182.7,27052.3
77168.6,27098.9
77145.7,27141.7
77114.8,27179.3
77077.3,27210.2
77034.4,27233.1
76987.8,27247.2
76939.4,27252
76663.9,27252
76615.5,27247.2
76568.9,27233.1
76526.1,27210.2
76488.5,27179.3
76457.6,27141.7
76434.7,27098.9
76420.6,27052.3
76415.8,27003.9
76415.8,26708.7
76007.1,26708.7
76006.4,26715.4
76006.4,27003.9
76001.6,27052.3
75987.5,27098.9
75964.6,27141.7
75933.7,27179.3
75896.2,27210.2
75853.3,27233.1
75806.7,27247.2
75758.3,27252
75482.8,27252
75434.4,27247.2
75387.8,27233.1
75344.9,27210.2
75307.4,27179.3
75276.5,27141.7
75253.6,27098.9
75251.9,27093.3
74812.4,27093.3
74808.7,27131.1
74794.6,27177.6
74771.7,27220.5
74740.8,27258.1
74703.2,27288.9
74660.4,27311.8
74613.8,27326
74565.4,27330.7
73856.8,27330.7
73808.4,27326
73761.8,27311.8
73719,27288.9
73681.4,27258.1
73650.5,27220.5
73627.6,27177.6
73613.5,27131.1
73608.7,27082.7
73608.7,26098.4
73613.5,26050
73627.6,26003.5
73650.5,25960.6
73681.4,25923
73719,25892.2
73761.8,25869.3
73808.4,25855.1
73856.8,25850.4
73974.4,25850.4
74477.2,25347.5
74525.4,25231.2
74608.4,25106.9
74714.1,25001.3
74838.4,24918.2
74976.4,24861
75123,24831.9
75272.4,24831.9
75419,24861
75557.1,24918.2
75681.3,25001.3
75787,25106.9
75870,25231.2
75927.2,25369.3
75956.4,25515.8
75956.4,25665.3
75927.2,25811.8
75870,25949.9
75787,26074.2
75695.8,26165.3
75758.3,26165.3
75806.7,26170.1
75853.3,26184.2
75896.2,26207.1
75933.7,26238
75964.6,26275.6
75987.5,26318.5
76001.6,26365
76006.4,26413.4
76006.4,26701.9
76007.1,26708.7
76415.8,26708.7
76415.8,26413.4
76420.6,26365
76434.7,26318.5
76457.6,26275.6
76488.5,26238
76526.1,26207.1
76568.9,26184.2
76615.5,26170.1
76663.9,26165.3
76939.4,26165.3
76987.8,26170.1
77034.4,26184.2
77077.3,26207.1
77114.8,26238
77145.7,26275.6
77168.6,26318.5
77182.7,26365
77187.5,26413.4
77320.8,26413.4
77324.8,26408.6
77362.1,26378
77324.8,26347.4
77281.7,26294.9
77249.7,26235
77230,26170
77223.3,26102.4
77223.3,25905.5
77230,25837.9
77249.7,25772.9
77281.7,25713
77324.8,25660.5
77372.1,25621.7
77372.1,25345.3
77220.8,25345.3
77194.2,25347.9
77087.9,25337.4
76985.7,25306.4
76891.6,25256.1
76809,25188.3
76792,25167.7
76581.6,24957.3
76514.9,24957.3
76368.4,24928.1
76230.3,24870.9
76106,24787.9
76000.4,24682.2
75917.3,24558
75860.2,24419.9
75831,24273.3
75831,24123.9
75860.2,23977.3
75917.3,23839.2
76000.4,23715
76106,23609.3
76230.3,23526.3
76368.4,23469.1
76514.9,23439.9
76664.4,23439.9
76811,23469.1
76949,23526.3
77073.3,23609.3
77178.9,23715
77262,23839.2
77319.2,23977.3
77348.3,24123.9
77348.3,24190.6
77418.8,24261
77902.4,24261
77902.4,24212.6
77907.2,24164.2
77921.3,24117.7
77944.2,24074.8
77975.1,24037.2
78012.7,24006.4
78055.6,23983.4
78102.1,23969.3
78150.5,23964.6
79331.6,23964.6
79380,23969.3
79426.5,23983.4
79469.4,24006.4
79507,24037.2
79537.8,24074.8
79560.7,24117.7
79574.9,24164.2
79579.6,24212.6
79665.4,24212.6
79665.4,23091.3
73092.2,23091.3
Z" /> 
</g>
</g>
</g> 
</svg>
